<svg width="20" height="21" viewBox="0 0 20 21" fill="none" xmlns="http://www.w3.org/2000/svg">
<path d="M13.75 9V4.5C13.75 3.50544 13.3549 2.55161 12.6516 1.84835C11.9484 1.14509 10.9945 0.75 9.99998 0.75C9.00542 0.75 8.0516 1.14509 7.34833 1.84835C6.64507 2.55161 6.24998 3.50544 6.24998 4.5V9M17.606 7.007L18.869 19.007C18.939 19.672 18.419 20.25 17.75 20.25H2.24998C2.09219 20.2502 1.93613 20.2171 1.79193 20.1531C1.64774 20.089 1.51863 19.9953 1.41301 19.8781C1.30738 19.7608 1.2276 19.6227 1.17884 19.4726C1.13008 19.3226 1.11343 19.1639 1.12999 19.007L2.39399 7.007C2.42314 6.73056 2.55361 6.4747 2.76024 6.28876C2.96686 6.10281 3.23501 5.99995 3.51298 6H16.487C17.063 6 17.546 6.435 17.606 7.007ZM6.62498 9C6.62498 9.09946 6.58548 9.19484 6.51515 9.26517C6.44482 9.33549 6.34944 9.375 6.24998 9.375C6.15053 9.375 6.05515 9.33549 5.98482 9.26517C5.91449 9.19484 5.87498 9.09946 5.87498 9C5.87498 8.90054 5.91449 8.80516 5.98482 8.73483C6.05515 8.66451 6.15053 8.625 6.24998 8.625C6.34944 8.625 6.44482 8.66451 6.51515 8.73483C6.58548 8.80516 6.62498 8.90054 6.62498 9ZM14.125 9C14.125 9.09946 14.0855 9.19484 14.0152 9.26517C13.9448 9.33549 13.8494 9.375 13.75 9.375C13.6505 9.375 13.5551 9.33549 13.4848 9.26517C13.4145 9.19484 13.375 9.09946 13.375 9C13.375 8.90054 13.4145 8.80516 13.4848 8.73483C13.5551 8.66451 13.6505 8.625 13.75 8.625C13.8494 8.625 13.9448 8.66451 14.0152 8.73483C14.0855 8.80516 14.125 8.90054 14.125 9Z" stroke="#858585" stroke-width="1.5" stroke-linecap="round" stroke-linejoin="round"/>
</svg>
