<svg width="18" height="22" viewBox="0 0 18 22" fill="none" xmlns="http://www.w3.org/2000/svg">
<path d="M11.74 8L11.394 17M6.606 17L6.26 8M16.228 4.79C16.57 4.842 16.91 4.897 17.25 4.956M16.228 4.79L15.16 18.673C15.1164 19.2382 14.8611 19.7662 14.445 20.1512C14.029 20.5363 13.4829 20.7502 12.916 20.75H5.084C4.5171 20.7502 3.97102 20.5363 3.55498 20.1512C3.13894 19.7662 2.88359 19.2382 2.84 18.673L1.772 4.79M16.228 4.79C15.0739 4.61552 13.9138 4.4831 12.75 4.393M1.772 4.79C1.43 4.841 1.09 4.896 0.75 4.955M1.772 4.79C2.92613 4.61552 4.08623 4.4831 5.25 4.393M12.75 4.393V3.477C12.75 2.297 11.84 1.313 10.66 1.276C9.55362 1.24064 8.44638 1.24064 7.34 1.276C6.16 1.313 5.25 2.298 5.25 3.477V4.393M12.75 4.393C10.2537 4.20008 7.74628 4.20008 5.25 4.393" stroke="#4A4A4A" stroke-width="1.5" stroke-linecap="round" stroke-linejoin="round"/>
</svg>
